<svg width="70.000000" height="70.000000" viewBox="0 0 70 70" fill="none" xmlns="http://www.w3.org/2000/svg" xmlns:xlink="http://www.w3.org/1999/xlink">
	<desc>
			Created with Pixso.
	</desc>
	<defs>
		<clipPath id="clip1_533">
			<rect id="IMAGE" width="70.000000" height="70.000000" fill="white" fill-opacity="0"/>
		</clipPath>
		<linearGradient id="paint_linear_1_534_0" x1="-2.261309" y1="53.168121" x2="61.753525" y2="52.931282" gradientUnits="userSpaceOnUse">
			<stop offset="0.197917" stop-color="#B16CEA"/>
			<stop offset="0.557292" stop-color="#FF5E69"/>
			<stop offset="0.828125" stop-color="#FF8A56"/>
			<stop offset="1.000000" stop-color="#FFA84B"/>
		</linearGradient>
		<linearGradient id="paint_linear_1_535_0" x1="17.010794" y1="17.316996" x2="43.832863" y2="15.210535" gradientUnits="userSpaceOnUse">
			<stop offset="0.197917" stop-color="#B16CEA"/>
			<stop offset="0.557292" stop-color="#FF5E69"/>
			<stop offset="0.828125" stop-color="#FF8A56"/>
			<stop offset="1.000000" stop-color="#FFA84B"/>
		</linearGradient>
	</defs>
	<g clip-path="url(#clip1_533)">
		<path id="Vector" d="M69.02 36.48C69.02 45.33 65.55 53.82 59.38 60.08C53.22 66.33 44.85 69.85 36.13 69.85C27.4 69.85 19.04 66.33 12.87 60.08C6.7 53.82 3.24 45.33 3.24 36.48L36.13 36.48L69.02 36.48Z" fill="url(#paint_linear_1_534_0)" fill-opacity="1.000000" fill-rule="nonzero"/>
		<path id="Vector" d="M47.44 19.9C47.44 26.24 42.38 31.38 36.13 31.38C29.88 31.38 24.81 26.24 24.81 19.9C24.81 13.56 29.88 8.42 36.13 8.42C42.38 8.42 47.44 13.56 47.44 19.9Z" fill="url(#paint_linear_1_535_0)" fill-opacity="1.000000" fill-rule="evenodd"/>
		<path id="Vector" d="M65.78 33.37C65.78 42.22 62.31 50.71 56.14 56.97C49.97 63.23 41.61 66.74 32.89 66.74C24.16 66.74 15.8 63.23 9.63 56.97C3.46 50.71 0 42.22 0 33.37L32.89 33.37L65.78 33.37Z" fill="#000000" fill-opacity="1.000000" fill-rule="nonzero"/>
		<path id="Vector" d="M44.2 16.79C44.2 23.14 39.14 28.28 32.89 28.28C26.64 28.28 21.57 23.14 21.57 16.79C21.57 10.45 26.64 5.31 32.89 5.31C39.14 5.31 44.2 10.45 44.2 16.79Z" fill="#000000" fill-opacity="1.000000" fill-rule="evenodd"/>
	</g>
</svg>
